<?xml version="1.0" encoding="utf-8"?>
<!-- Generator: Adobe Illustrator 21.1.0, SVG Export Plug-In . SVG Version: 6.00 Build 0)  -->
<svg version="1.1" id="Layer_1" xmlns="http://www.w3.org/2000/svg" xmlns:xlink="http://www.w3.org/1999/xlink" x="0px" y="0px"
	 width="120px" height="120px" viewBox="0 0 120 120" style="enable-background:new 0 0 120 120;" xml:space="preserve">
<style type="text/css">
	.st0{fill:#FFFFFF;}
</style>
<g>
	<g>
		<path class="st0" d="M59.4,30c8,0,14.5-6.5,14.5-14.5v-0.6c0-8-6.5-14.5-14.5-14.5S44.9,6.9,44.9,14.9v0.6
			C44.9,23.5,51.4,30,59.4,30z M52.5,14.9c0-3.8,3-6.8,6.8-6.8c3.8,0,6.8,3,6.8,6.8v0.6c0,3.8-3,6.8-6.8,6.8c-3.8,0-6.8-3-6.8-6.8
			V14.9z"/>
		<path class="st0" d="M82.3,74.1V45.7c0-5.6-4.6-10.1-10.1-10.1H46.5c-5.6,0-10.1,4.6-10.1,10.1v28.4c0,3.7,2,7.1,5.3,8.9l1.1,0.6
			c0.8,0.5,1.3,1.3,1.3,2.3v23c0,5.6,4.6,10.1,10.1,10.1h10.1c5.6,0,10.1-4.6,10.1-10.1V85.8c0-0.9,0.5-1.8,1.3-2.3l1.1-0.6
			C80.3,81.2,82.3,77.8,82.3,74.1z M74.7,74.1c0,0.9-0.5,1.8-1.3,2.3L72.3,77C69,78.8,67,82.2,67,85.9v23c0,1.4-1.1,2.5-2.5,2.5
			H54.3c-1.4,0-2.5-1.1-2.5-2.5V85.8c0-3.7-2-7.1-5.3-8.9l-1-0.6c-0.8-0.5-1.3-1.3-1.3-2.3V45.7c0-1.4,1.1-2.5,2.5-2.5h25.6
			c1.4,0,2.5,1.1,2.5,2.5v28.4H74.7z"/>
		<path class="st0" d="M105.6,18.4v-0.6c0-8-6.5-14.5-14.5-14.5S76.7,9.8,76.7,17.8v0.6c0,8,6.5,14.5,14.5,14.5
			S105.6,26.4,105.6,18.4z M84.5,18.4v-0.6c0-3.8,3-6.8,6.8-6.8s6.8,3,6.8,6.8v0.6c0,3.8-3,6.8-6.8,6.8S84.5,22.3,84.5,18.4z"/>
		<path class="st0" d="M101.2,38.4H89c-2.2,0-3.8,1.6-3.8,3.8c0,2.2,1.6,3.8,3.8,3.8h12.2c1.4,0,2.5,1.1,2.5,2.5v24.2L98,75.9
			c-1.3,0.6-2,1.9-2,3.3v22.4c0,1.4-1.1,2.5-2.5,2.5H82.6c-2.2,0-3.8,1.6-3.8,3.8c0,2.2,1.6,3.8,3.8,3.8h10.9
			c5.6,0,10.1-4.6,10.1-10.1V81.5l5.7-3.2c1.3-0.6,2-1.9,2-3.3V48.5C111.3,42.9,106.8,38.4,101.2,38.4z"/>
		<path class="st0" d="M41.9,18.4v-0.6c0-8-6.5-14.5-14.5-14.5S12.9,9.8,12.9,17.8v0.6c0,8,6.5,14.5,14.5,14.5S41.9,26.4,41.9,18.4z
			 M20.7,18.4v-0.6c0-3.8,3-6.8,6.8-6.8s6.8,3,6.8,6.8v0.6c0,3.8-3,6.8-6.8,6.8S20.7,22.3,20.7,18.4z"/>
		<path class="st0" d="M7.4,48.5v22.7c0,3.7,2,7.1,5.3,8.9l1.1,0.6c0.8,0.5,1.3,1.3,1.3,2.3v18.6c0,5.6,4.6,10.1,10.1,10.1h10.9
			c2.2,0,3.8-1.6,3.8-3.8c0-2.2-1.6-3.8-3.8-3.8H25.2c-1.4,0-2.5-1.1-2.5-2.5V83c0-3.7-2-7.1-5.3-8.9l-1.1-0.6
			C15.5,73,15,72.2,15,71.2V48.5c0-1.4,1.1-2.5,2.5-2.5h12.2c2.2,0,3.8-1.6,3.8-3.8c0-2.2-1.6-3.8-3.8-3.8H17.5
			C11.9,38.4,7.4,42.9,7.4,48.5z"/>
	</g>
</g>
</svg>
