<?xml version="1.0" encoding="utf-8"?>
<!-- Generator: Adobe Illustrator 21.1.0, SVG Export Plug-In . SVG Version: 6.00 Build 0)  -->
<svg version="1.1" id="Layer_1" xmlns="http://www.w3.org/2000/svg" xmlns:xlink="http://www.w3.org/1999/xlink" x="0px" y="0px"
	 width="120px" height="120px" viewBox="0 0 120 120" style="enable-background:new 0 0 120 120;" xml:space="preserve">
<style type="text/css">
	.st0{fill:#FFFFFF;}
</style>
<g>
	<path class="st0" d="M76.1,67.8c0.5,0,0.9,0.4,0.9,0.9v5.7c0,0.5-0.4,0.9-0.9,0.9H29.8h-0.9l-0.1,0.9c-0.3,3.9-3.5,6.8-7.4,6.8
		s-7.1-2.9-7.4-6.8l-0.1-0.9H13H3.1c-0.5,0-0.9-0.4-0.9-0.9v-5.7c0-0.5,0.4-0.9,0.9-0.9H76.1 M21.4,80.8c2.9,0,5.4-2.4,5.4-5.3
		c0-2.9-2.4-5.3-5.4-5.3c-3,0-5.4,2.4-5.4,5.3C16,78.4,18.5,80.8,21.4,80.8 M76.1,66.9h-73c-1,0-1.9,0.8-1.9,1.9v5.7
		c0,1,0.8,1.9,1.9,1.9H13c0.4,4.3,4,7.6,8.4,7.6c4.4,0,8-3.4,8.4-7.6h46.3c1,0,1.9-0.8,1.9-1.9v-5.7C78,67.7,77.2,66.9,76.1,66.9
		L76.1,66.9z M21.4,79.9c-2.4,0-4.4-2-4.4-4.4c0-2.4,2-4.4,4.4-4.4s4.4,2,4.4,4.4C25.8,77.9,23.8,79.9,21.4,79.9L21.4,79.9z"/>
	<path class="st0" d="M93.2,45c2.7,0,5.2,1.4,6.5,3.7l5.6,9.6l0.2,0.4l0.5,0.1l9.7,1.3c1.4,0.2,2.4,1.4,2.5,2.8v9.6
		c0,1.5-1.3,2.8-2.8,2.8h-2.5h-0.9l-0.1,0.9c-0.3,3.9-3.5,6.8-7.4,6.8s-7.1-2.9-7.4-6.8l-0.1-0.9H96H82.5c-0.5,0-0.9-0.4-0.9-0.9
		V45.9c0-0.5,0.4-0.9,0.9-0.9H93.2 M87,58.6h12.1c0.5,0,0.9-0.3,1.2-0.7c0.2-0.4,0.2-0.9-0.1-1.3l-3.6-6.2c-0.8-1.3-2.1-2-3.5-2h-6
		c-0.7,0-1.3,0.6-1.3,1.3v7.6C85.7,58,86.3,58.6,87,58.6 M104.3,80.8c3,0,5.4-2.4,5.4-5.3c0-2.9-2.4-5.3-5.4-5.3
		c-3,0-5.4,2.4-5.4,5.3C98.9,78.4,101.3,80.8,104.3,80.8 M93.2,44H82.5c-1,0-1.9,0.8-1.9,1.9v28.4c0,1,0.8,1.9,1.9,1.9H96
		c0.4,4.3,4,7.6,8.4,7.6s8-3.4,8.4-7.6h2.5c2.1,0,3.8-1.7,3.8-3.7v-9.6c-0.1-1.9-1.5-3.4-3.3-3.7l-9.7-1.3l-5.6-9.6
		C99,45.6,96.2,44,93.2,44L93.2,44z M87,57.6c-0.2,0-0.4-0.2-0.4-0.4v-7.6c0-0.2,0.2-0.4,0.4-0.4h6c1.1,0,2.2,0.7,2.7,1.6l3.6,6.2
		c0.2,0.3,0,0.6-0.3,0.6H87L87,57.6z M104.3,79.9c-2.4,0-4.4-2-4.4-4.4c0-2.4,2-4.4,4.4-4.4s4.4,2,4.4,4.4
		C108.7,77.9,106.7,79.9,104.3,79.9L104.3,79.9z"/>
	<path class="st0" d="M76.1,33.9c0.5,0,0.9,0.4,0.9,0.9v27.6c0,0.5-0.4,0.9-0.9,0.9h-73c-0.5,0-0.9-0.4-0.9-0.9V34.8
		c0-0.5,0.4-0.9,0.9-0.9H76.1 M76.1,32.9h-73c-1,0-1.9,0.8-1.9,1.9v27.6c0,1,0.8,1.9,1.9,1.9h73c1,0,1.9-0.8,1.9-1.9V34.8
		C78,33.8,77.2,32.9,76.1,32.9L76.1,32.9z"/>
</g>
</svg>
