<?xml version="1.0" encoding="utf-8"?>
<!-- Generator: Adobe Illustrator 21.1.0, SVG Export Plug-In . SVG Version: 6.00 Build 0)  -->
<svg version="1.1" id="Layer_1" xmlns="http://www.w3.org/2000/svg" xmlns:xlink="http://www.w3.org/1999/xlink" x="0px" y="0px"
	 width="120px" height="120px" viewBox="0 0 120 120" style="enable-background:new 0 0 120 120;" xml:space="preserve">
<style type="text/css">
	.st0{fill:#FFFFFF;}
</style>
<path class="st0" d="M66.4,89c0,3.4-2.8,6.2-6.2,6.2c-3.4,0-6.2-2.8-6.2-6.2c0-3.4,2.8-6.2,6.2-6.2C63.7,82.8,66.4,85.6,66.4,89
	L66.4,89z M44.2,44.4c3.1,1.5,6.7,0.2,8.2-2.9c0,0,0,0,0,0c1.4-3,4.5-5,7.8-5c4.7,0.1,8.6,3.8,8.8,8.5c0.1,3.8-2.3,7.3-5.9,8.6
	c-5.3,1.7-8.9,6.6-8.9,12.2v4.9c0,3.4,2.8,6.1,6.1,6.1c3.4,0,6.1-2.8,6.1-6.1v-4.9c0-0.4,0.6-0.6,0.6-0.6
	c8.8-2.9,14.5-11.3,14.3-20.5c-0.4-11.3-9.7-20.3-21-20.5h-0.1c-8,0-15.3,4.7-18.7,11.9C39.9,39.2,41.2,42.9,44.2,44.4L44.2,44.4
	L44.2,44.4z M0.5,90.6V28.8C0.6,12.9,13.5,0,29.4,0h61.8C107.1,0,120,12.9,120,28.8v61.8c0,15.9-12.9,28.8-28.8,28.8H29.4
	C13.5,119.4,0.6,106.5,0.5,90.6L0.5,90.6z M12.2,90.6c0,9.5,7.7,17.2,17.2,17.2h61.8c9.5,0,17.2-7.7,17.2-17.2V28.8
	c0-9.5-7.7-17.2-17.2-17.2H29.4c-9.5,0-17.2,7.7-17.2,17.2L12.2,90.6z"/>
</svg>
