<?xml version="1.0" encoding="utf-8"?>
<!-- Generator: Adobe Illustrator 21.1.0, SVG Export Plug-In . SVG Version: 6.00 Build 0)  -->
<svg version="1.1" id="Layer_1" xmlns="http://www.w3.org/2000/svg" xmlns:xlink="http://www.w3.org/1999/xlink" x="0px" y="0px"
	 width="120px" height="120px" viewBox="0 0 120 120" style="enable-background:new 0 0 120 120;" xml:space="preserve">
<style type="text/css">
	.st0{fill:#FFFFFF;}
</style>
<g>
	<g>
		<path class="st0" d="M46,119.7c2.4,0,4.2-1.8,4.2-4.2V83.8c0-0.8,0.6-1.4,1.4-1.4h19.5c0.8,0,1.4,0.6,1.4,1.4v31.8
			c0,2.4,1.8,4.2,4.2,4.2h22.8c8.6,0,15.6-6.9,15.6-15.6V50.1c0-3.5-1.4-6.9-4-9.3l-0.1-0.1L68.9,3c-4.1-4-10.9-4-15,0L11.8,40.6
			l-0.1,0.1c-2.5,2.5-4,5.9-4,9.3v54.1c0,8.6,6.9,15.6,15.6,15.6H46z M16.2,104.2V50.1c0-1.1,0.4-2.4,1.3-3.3L59.6,9.2l0.1-0.1
			c0.8-0.8,2.4-0.8,3.3,0l0.1,0.1l42.2,37.7c0.8,0.8,1.3,2,1.3,3.3v54.1c0,4-3.1,7.1-7.1,7.1H81.1V83.8c0-5.5-4.4-9.9-9.9-9.9H51.7
			c-5.5,0-9.9,4.4-9.9,9.9v27.6H23.2C19.3,111.3,16.2,108.1,16.2,104.2z"/>
	</g>
</g>
</svg>
