<?xml version="1.0" encoding="utf-8"?>
<!-- Generator: Adobe Illustrator 21.1.0, SVG Export Plug-In . SVG Version: 6.00 Build 0)  -->
<svg version="1.1" id="Layer_1" xmlns="http://www.w3.org/2000/svg" xmlns:xlink="http://www.w3.org/1999/xlink" x="0px" y="0px"
	 width="120px" height="120px" viewBox="0 0 120 120" style="enable-background:new 0 0 120 120;" xml:space="preserve">
<style type="text/css">
	.st0{fill:#6E6E70;}
</style>
<g>
	<path class="st0" d="M60.4,84.8c-14.2,0-25.7-11.5-25.7-25.7s11.5-25.7,25.7-25.7s25.7,11.5,25.7,25.7S74.6,84.8,60.4,84.8z
		 M60.4,41.4c-9.8,0-17.7,7.9-17.7,17.7s7.9,17.7,17.7,17.7s17.7-7.9,17.7-17.7S70.1,41.4,60.4,41.4z"/>
	<path class="st0" d="M88.5,39.7c-3.7,0-6.8-3-6.8-6.8s3-6.8,6.8-6.8s6.8,3,6.8,6.8S92.2,39.7,88.5,39.7z M88.5,32.8
		c-0.1,0-0.1,0-0.1,0.1c0,0.1,0.2,0.1,0.2,0C88.6,32.8,88.5,32.8,88.5,32.8z"/>
	<path class="st0" d="M85.6,110.1H35.2c-14.2,0-25.8-11.6-25.8-25.8V33.9c0-14.2,11.6-25.8,25.8-25.8h50.4
		c14.2,0,25.8,11.6,25.8,25.8v50.4C111.4,98.5,99.8,110.1,85.6,110.1z M35.2,16.1c-9.8,0-17.8,8-17.8,17.8v50.4
		c0,9.8,8,17.8,17.8,17.8h50.4c9.8,0,17.8-8,17.8-17.8V33.9c0-9.8-8-17.8-17.8-17.8H35.2z"/>
</g>
</svg>
