<?xml version="1.0" encoding="utf-8"?>
<!-- Generator: Adobe Illustrator 21.1.0, SVG Export Plug-In . SVG Version: 6.00 Build 0)  -->
<svg version="1.1" id="Layer_1" xmlns="http://www.w3.org/2000/svg" xmlns:xlink="http://www.w3.org/1999/xlink" x="0px" y="0px"
	 width="120px" height="120px" viewBox="0 0 120 120" style="enable-background:new 0 0 120 120;" xml:space="preserve">
<style type="text/css">
	.st0{fill:#6E6E70;}
</style>
<path class="st0" d="M31.2,106.7H10.8V41.5h20.4V106.7z M20.5,33.3h-0.1c-7.4,0-12.2-5-12.2-11.3c0-6.4,4.9-11.3,12.5-11.3
	c7.5,0,12.2,4.9,12.3,11.3C32.9,28.3,28.2,33.3,20.5,33.3z M112.9,106.7H89.7V72.9c0-8.8-3.6-14.9-11.6-14.9c-6.1,0-9.5,4.1-11.1,8
	c-0.6,1.4-0.5,3.4-0.5,5.3v35.3H43.7c0,0,0.3-59.8,0-65.2h22.9v10.2C68,47.2,75.3,40.9,87,40.9c14.5,0,25.9,9.4,25.9,29.6V106.7z"/>
</svg>
