<?xml version="1.0" encoding="utf-8"?>
<!-- Generator: Adobe Illustrator 21.1.0, SVG Export Plug-In . SVG Version: 6.00 Build 0)  -->
<svg version="1.1" id="Layer_1" xmlns="http://www.w3.org/2000/svg" xmlns:xlink="http://www.w3.org/1999/xlink" x="0px" y="0px"
	 width="120px" height="120px" viewBox="0 0 120 120" style="enable-background:new 0 0 120 120;" xml:space="preserve">
<style type="text/css">
	.st0{fill:#FFFFFF;}
</style>
<g>
	<path class="st0" d="M114.8,74.9L66,91c-3.3-5.1-9.1-8.1-15.1-7.6L28.7,15.8c-2.2-6.6-8-11.3-15-11.9L4.6,3.1
		C2.4,2.9,0.4,4.5,0.2,6.7s1.4,4.2,3.7,4.4l9.2,0.8c3.7,0.3,6.9,2.9,8,6.4l22.2,67.5c-7.7,4.9-10,15-5.2,22.8
		c4.9,7.7,15,10,22.8,5.2c5.2-3.3,8.1-9.1,7.7-15.2l48.8-16.1c2.1-0.7,3.2-3,2.5-5.1C119.1,75.4,116.9,74.3,114.8,74.9z M54.8,107.8
		c-4.4,1.5-9.2-0.9-10.7-5.3c-1.5-4.4,0.9-9.2,5.3-10.7c4.4-1.5,9.2,0.9,10.7,5.3c0,0,0,0,0,0C61.6,101.5,59.3,106.3,54.8,107.8
		C54.8,107.8,54.8,107.8,54.8,107.8z"/>
	<path class="st0" d="M93.2,14.9L48.3,29.6c-2.1,0.7-3.2,3-2.6,5.1l0,0l14.2,43.3c0.7,2.1,3,3.2,5.1,2.6l0,0l44.9-14.7
		c2.1-0.7,3.2-3,2.6-5.1l0,0L98.2,17.5C97.6,15.3,95.3,14.2,93.2,14.9C93.2,14.9,93.2,14.9,93.2,14.9z M66.3,71.6L54.6,36l37.3-12.3
		l11.7,35.6L66.3,71.6z"/>
</g>
</svg>
