<?xml version="1.0" encoding="utf-8"?>
<!-- Generator: Adobe Illustrator 21.1.0, SVG Export Plug-In . SVG Version: 6.00 Build 0)  -->
<svg version="1.1" id="Layer_1" xmlns="http://www.w3.org/2000/svg" xmlns:xlink="http://www.w3.org/1999/xlink" x="0px" y="0px"
	 width="120px" height="120px" viewBox="0 0 120 120" style="enable-background:new 0 0 120 120;" xml:space="preserve">
<style type="text/css">
	.st0{fill:#F9B513;}
</style>
<g>
	<path class="st0" d="M60.3,0c-32.5,0-59,26.5-59,59c0,32.6,26.5,59.2,59,59.2c32.6,0,59.2-26.5,59.2-59.2C119.5,26.5,93,0,60.3,0z
		 M60.3,109.2c-27.6,0-50.1-22.5-50.1-50.1S32.7,8.9,60.3,8.9s50.1,22.5,50.1,50.1S88,109.2,60.3,109.2z"/>
	<polygon class="st0" points="50.9,70.9 33.8,53.8 27.3,60.2 50.9,83.7 89.7,44.9 83.2,38.4 	"/>
</g>
</svg>
