<?xml version="1.0" encoding="utf-8"?>
<!-- Generator: Adobe Illustrator 21.1.0, SVG Export Plug-In . SVG Version: 6.00 Build 0)  -->
<svg version="1.1" id="Layer_1" xmlns="http://www.w3.org/2000/svg" xmlns:xlink="http://www.w3.org/1999/xlink" x="0px" y="0px"
	 width="120px" height="120px" viewBox="0 0 120 120" style="enable-background:new 0 0 120 120;" xml:space="preserve">
<style type="text/css">
	.st0{fill:#F9B513;}
</style>
<g transform="translate(0,-952.36218)">
	<path class="st0" d="M32.4,953.2c-4.4,0-8.1,3.6-8.1,8.1v102.2c0,4.4,3.6,8.1,8.1,8.1h56.5c4.4,0,8.1-3.6,8.1-8.1V961.3
		c0-4.4-3.6-8.1-8.1-8.1H32.4z M32.4,958.6h56.5c1.5,0,2.7,1.2,2.7,2.7v5.4H29.7v-5.4C29.7,959.7,30.8,958.6,32.4,958.6z M29.7,972
		h61.9v75.3H29.7V972z M60.5,984.1c-0.4,0-0.9,0.2-1.3,0.4l-18.8,10.8c-0.8,0.5-1.3,1.4-1.3,2.3v21.5c0,1,0.5,1.8,1.3,2.3l18.8,10.8
		c0.4,0.3,0.9,0.4,1.4,0.4c0.4,0,0.9-0.2,1.3-0.4l18.8-10.8c0.8-0.5,1.3-1.4,1.3-2.3v-21.5c0-1-0.5-1.8-1.3-2.3L62,984.5
		C61.5,984.3,61,984.1,60.5,984.1z M60.6,989.9l13.4,7.6l-13.4,7.6l-13.4-7.6L60.6,989.9z M44.5,1002.2l13.4,7.7v15.3l-13.4-7.7
		V1002.2L44.5,1002.2z M76.8,1002.2v15.3l-13.4,7.7v-15.3L76.8,1002.2L76.8,1002.2z M29.7,1052.7h61.9v10.8c0,1.5-1.2,2.7-2.7,2.7
		H32.4c-1.5,0-2.7-1.2-2.7-2.7V1052.7z M51.2,1056.8c-1.5,0-2.7,1.2-2.7,2.7c0,1.5,1.2,2.7,2.7,2.7H70c1.5,0,2.7-1.2,2.7-2.7
		c0-1.5-1.2-2.7-2.7-2.7H51.2z"/>
</g>
</svg>
