<?xml version="1.0" encoding="utf-8"?>
<!-- Generator: Adobe Illustrator 21.1.0, SVG Export Plug-In . SVG Version: 6.00 Build 0)  -->
<svg version="1.1" id="Layer_1" xmlns="http://www.w3.org/2000/svg" xmlns:xlink="http://www.w3.org/1999/xlink" x="0px" y="0px"
	 width="120px" height="120px" viewBox="0 0 120 120" style="enable-background:new 0 0 120 120;" xml:space="preserve">
<style type="text/css">
	.st0{fill:#F9B513;}
</style>
<g>
	<g transform="translate(0,-952.36218)">
		<g>
			<path class="st0" d="M8.3,964.2c-4.2,0-7.7,3.5-7.7,7.7v82.5c0,1.4,1.2,2.6,2.6,2.6h113.5c1.4,0,2.6-1.2,2.6-2.6V972
				c0-4.2-3.5-7.7-7.7-7.7H8.3z M8.3,969.4h103.2c1.5,0,2.6,1.1,2.6,2.6v15.5H5.7V972C5.7,970.5,6.8,969.4,8.3,969.4z M14.7,974.6
				c-2.1,0-3.9,1.7-3.9,3.9c0,2.1,1.7,3.9,3.9,3.9c2.1,0,3.9-1.7,3.9-3.9C18.6,976.3,16.9,974.6,14.7,974.6z M26.3,974.6
				c-2.1,0-3.9,1.7-3.9,3.9c0,2.1,1.7,3.9,3.9,3.9c2.1,0,3.9-1.7,3.9-3.9C30.2,976.3,28.5,974.6,26.3,974.6z M37.9,974.6
				c-2.1,0-3.9,1.7-3.9,3.9c0,2.1,1.7,3.9,3.9,3.9c2.1,0,3.9-1.7,3.9-3.9C41.8,976.3,40.1,974.6,37.9,974.6z M5.7,992.6H114v59.3
				H5.7V992.6z"/>
			<path class="st0" d="M116.6,1057.6H3.1c-1.7,0-3.1-1.4-3.1-3.1V972c0-4.6,3.7-8.3,8.3-8.3h103.2c4.6,0,8.3,3.7,8.3,8.3v82.5
				C119.7,1056.2,118.3,1057.6,116.6,1057.6z M8.3,964.8c-4,0-7.2,3.2-7.2,7.2v82.5c0,1.1,0.9,2,2,2h113.5c1.1,0,2-0.9,2-2V972
				c0-4-3.2-7.2-7.2-7.2H8.3z M114.6,1052.5H5.2v-60.4h109.4V1052.5z M6.2,1051.4h107.2v-58.2H6.2V1051.4z M114.6,988H5.2v-16
				c0-1.8,1.3-3.1,3.1-3.1h103.2c1.8,0,3.1,1.3,3.1,3.1V988z M6.2,986.9h107.2V972c0-1.2-0.9-2-2-2H8.3c-1.2,0-2,0.9-2,2V986.9z
				 M37.9,982.8c-2.4,0-4.4-2-4.4-4.4c0-2.4,2-4.4,4.4-4.4c2.4,0,4.4,2,4.4,4.4C42.4,980.9,40.4,982.8,37.9,982.8z M37.9,975.1
				c-1.8,0-3.3,1.5-3.3,3.3c0,1.8,1.5,3.3,3.3,3.3c1.8,0,3.3-1.5,3.3-3.3C41.3,976.6,39.8,975.1,37.9,975.1z M26.3,982.8
				c-2.4,0-4.4-2-4.4-4.4c0-2.4,2-4.4,4.4-4.4s4.4,2,4.4,4.4C30.7,980.9,28.8,982.8,26.3,982.8z M26.3,975.1c-1.8,0-3.3,1.5-3.3,3.3
				c0,1.8,1.5,3.3,3.3,3.3c1.8,0,3.3-1.5,3.3-3.3C29.7,976.6,28.2,975.1,26.3,975.1z M14.7,982.8c-2.4,0-4.4-2-4.4-4.4
				c0-2.4,2-4.4,4.4-4.4c2.4,0,4.4,2,4.4,4.4C19.1,980.9,17.2,982.8,14.7,982.8z M14.7,975.1c-1.8,0-3.3,1.5-3.3,3.3
				c0,1.8,1.5,3.3,3.3,3.3c1.8,0,3.3-1.5,3.3-3.3C18.1,976.6,16.6,975.1,14.7,975.1z"/>
		</g>
	</g>
	<g>
		<rect x="18.1" y="57.3" class="st0" width="82.6" height="7.1"/>
		<path class="st0" d="M101.3,64.9H17.6v-8.1h83.7V64.9z M18.7,63.8h81.5v-6H18.7V63.8z"/>
	</g>
	<g>
		<rect x="18.1" y="72.4" class="st0" width="82.6" height="7.1"/>
		<path class="st0" d="M101.3,80H17.6v-8.1h83.7V80z M18.7,78.9h81.5v-6H18.7V78.9z"/>
	</g>
</g>
</svg>
