<?xml version="1.0" encoding="utf-8"?>
<!-- Generator: Adobe Illustrator 21.1.0, SVG Export Plug-In . SVG Version: 6.00 Build 0)  -->
<svg version="1.1" id="Layer_1" xmlns="http://www.w3.org/2000/svg" xmlns:xlink="http://www.w3.org/1999/xlink" x="0px" y="0px"
	 width="120px" height="120px" viewBox="0 0 120 120" style="enable-background:new 0 0 120 120;" xml:space="preserve">
<style type="text/css">
	.st0{fill:#F9B513;}
</style>
<path class="st0" d="M60.7,1C28,1,1.4,27.6,1.4,60.3c0,32.7,26.6,59.3,59.3,59.3c32.7,0,59.3-26.6,59.3-59.3C120,27.6,93.4,1,60.7,1
	z M60.7,72.7c-11.9,0-21.6-9.7-21.6-21.6c0-11.9,9.7-21.6,21.6-21.6c11.9,0,21.6,9.7,21.6,21.6C82.3,63,72.6,72.7,60.7,72.7z
	 M61.6,81c13.3,0,25.6,6.4,33.3,17.2c-9.4,8.5-21.5,13.2-34.2,13.2c-12.2,0-23.8-4.3-33.1-12.2C35.2,87.9,48.1,81,61.6,81z
	 M77.9,75.5c7.8-5.5,12.7-14.6,12.7-24.4c0-16.5-13.4-29.9-29.9-29.9S30.8,34.6,30.8,51.1c0,10.1,5.1,19.4,13.3,24.9
	c-9,3.4-16.8,9.4-22.4,17.2C13.9,84,9.7,72.4,9.7,60.3c0-28.1,22.9-51,51-51s51,22.9,51,51c0,11.5-3.9,22.7-11.1,31.7
	C94.8,84.3,86.9,78.6,77.9,75.5z"/>
</svg>
