<?xml version="1.0" encoding="utf-8"?>
<!-- Generator: Adobe Illustrator 21.1.0, SVG Export Plug-In . SVG Version: 6.00 Build 0)  -->
<svg version="1.1" id="Layer_1" xmlns="http://www.w3.org/2000/svg" xmlns:xlink="http://www.w3.org/1999/xlink" x="0px" y="0px"
	 width="120px" height="120px" viewBox="0 0 120 120" style="enable-background:new 0 0 120 120;" xml:space="preserve">
<style type="text/css">
	.st0{fill:#FFFFFF;}
</style>
<g>
	<g>
		<g>
			<path class="st0" d="M57.1,62.6h10.3c2.8,0,5.2,2.3,5.2,5.2c0,2.9-2.3,5.2-5.2,5.2H52c0,0,0,0,0,0c-2.8,0-5.1-2.3-5.1-5.2V47.1
				c0-2.9,2.3-5.2,5.2-5.2c2.9,0,5.2,2.3,5.2,5.2V62.6z M108.8,61.1l2.2-2.2c2-2,5.3-2,7.3,0c2,2,2,5.3,0,7.3l-11,11
				c-1,1-2.3,1.5-3.6,1.5c-1.3,0-2.6-0.5-3.7-1.5l-11-11c-2-2-2-5.3,0-7.3c2-2,5.3-2,7.3,0l2.1,2.1c0-0.4,0-0.7,0-1.1
				c0-24.2-19.7-43.9-43.9-43.9S10.7,35.8,10.7,60s19.7,43.9,43.9,43.9c10.5,0,20.2-3.7,27.7-9.9l8.4,6.4
				c-9.6,8.6-22.3,13.8-36.1,13.8C24.6,114.2,0.3,90,0.3,60S24.6,5.8,54.6,5.8S108.8,30,108.8,60C108.8,60.4,108.8,60.7,108.8,61.1z
				"/>
		</g>
	</g>
</g>
</svg>
