<?xml version="1.0" encoding="utf-8"?>
<!-- Generator: Adobe Illustrator 21.1.0, SVG Export Plug-In . SVG Version: 6.00 Build 0)  -->
<svg version="1.1" id="Layer_1" xmlns="http://www.w3.org/2000/svg" xmlns:xlink="http://www.w3.org/1999/xlink" x="0px" y="0px"
	 width="120px" height="120px" viewBox="0 0 120 120" style="enable-background:new 0 0 120 120;" xml:space="preserve">
<style type="text/css">
	.st0{fill:#FFFFFF;}
</style>
<g>
	<g>
		<g>
			<path class="st0" d="M63.6,41.6c0,12.2,10,22.2,22.2,22.2s22.2-10,22.2-22.2s-10-22.2-22.2-22.2C73.6,19.4,63.6,29.4,63.6,41.6z
				 M101.4,41.6c0,8.6-7,15.5-15.5,15.5c-8.6,0-15.5-7-15.5-15.5s7-15.5,15.5-15.5C94.4,26.1,101.4,33,101.4,41.6z"/>
			<path class="st0" d="M112.1,93.7h3.7h3.7c0-14.1-11.5-25.6-25.6-25.6H77.7c-8.1,0-15.4,3.8-20.1,9.8c-4.3-3.3-9.6-5.2-15.4-5.2
				H26c-14.1,0-25.6,11.5-25.6,25.6h7.4l0,0c0-10,8.1-18.1,18.1-18.1h16.3c10,0,18.1,8.1,18.1,18.1l0,0h7.4c0-1.6-0.2-3.1-0.4-4.6
				c-0.7-3.8-2.2-7.4-4.5-10.4c3.3-4.6,8.7-7.7,14.8-7.7H94C104,75.5,112.1,83.7,112.1,93.7z"/>
			<path class="st0" d="M11.9,46.2c0,12.2,10,22.2,22.2,22.2c12.2,0,22.2-10,22.2-22.2s-10-22.2-22.2-22.2
				C21.9,23.9,11.9,33.9,11.9,46.2z M34.1,30.6c8.6,0,15.5,7,15.5,15.5s-7,15.5-15.5,15.5c-8.6,0-15.5-7-15.5-15.5
				S25.6,30.6,34.1,30.6z"/>
		</g>
	</g>
</g>
</svg>
